<svg width="22" height="19" viewBox="0 0 22 19" fill="none" xmlns="http://www.w3.org/2000/svg">
<path d="M11 0.445312C10.7604 0.445312 10.5201 0.529672 10.3301 0.701172L1.07811 9.0293C0.698111 9.3713 0.941158 10 1.45116 10H2.99999V10.0039L11 2.79102L17 8.18945V17H13V14H14.164C14.676 14 14.9181 13.3673 14.5351 13.0273L9.16405 8.25391C8.78505 7.91691 8.21492 7.91691 7.83592 8.25391L2.46483 13.0273C2.08183 13.3673 2.32197 14 2.83397 14H3.99999V17C3.99999 18.105 4.89499 19 5.99999 19H12H13H17C18.105 19 19 18.105 19 17V10H20.5488C21.0588 10 21.3009 9.3713 20.9219 9.0293L11.6699 0.701172C11.4794 0.529672 11.2396 0.445312 11 0.445312Z" fill="black"/>
</svg>
