<svg width="16" height="16" viewBox="0 0 16 16" fill="none" xmlns="http://www.w3.org/2000/svg">
<path d="M7.35551 2.14713C7.3055 2.14553 7.25475 2.1486 7.20317 2.15885L1.86983 3.22655C1.55783 3.28922 1.33337 3.5622 1.33337 3.8802V12.1198C1.33337 12.4378 1.55783 12.7108 1.86983 12.7734L7.20317 13.8411C7.61583 13.9238 8.00004 13.6069 8.00004 13.1862V2.81379C8.00004 2.44571 7.70559 2.1583 7.35551 2.14713ZM9.33337 3.33332V4.66666H10.6667V5.99999H9.33337V7.33332H10.6667V8.66666H9.33337V9.99999H10.6667V11.3333H9.33337V12.6667H14C14.368 12.6667 14.6667 12.368 14.6667 12V3.99999C14.6667 3.63199 14.368 3.33332 14 3.33332H9.33337ZM12 4.66666H13.3334V5.99999H12V4.66666ZM3.62504 5.53124C3.83304 5.53124 4.0216 5.65695 4.1016 5.84895L4.58468 7.0078C4.63468 7.12847 4.67231 7.26841 4.71098 7.42707H4.72791C4.74991 7.33174 4.79469 7.18608 4.86202 6.99608L5.42192 5.80207C5.49925 5.63674 5.66503 5.53124 5.8477 5.53124C6.20236 5.53124 6.4297 5.90801 6.26436 6.22134L5.33858 7.97786L6.27608 9.73306C6.45208 10.0664 6.21201 10.4687 5.83468 10.4687C5.64001 10.4687 5.46158 10.3557 5.38025 10.1784L4.77218 8.85806C4.74418 8.8014 4.71097 8.68861 4.68363 8.52994H4.67322C4.65655 8.60594 4.62296 8.71972 4.57296 8.87239L3.95186 10.1979C3.87453 10.3632 3.70745 10.4687 3.52478 10.4687H3.46749C3.10816 10.4687 2.88073 10.0822 3.05473 9.76822L4.04041 7.99608L3.16541 6.28124C2.99074 5.93791 3.23971 5.53124 3.62504 5.53124ZM12 7.33332H13.3334V8.66666H12V7.33332ZM12 9.99999H13.3334V11.3333H12V9.99999Z" fill="#5B5B5B"/>
</svg>
