<svg width="23" height="21" viewBox="0 0 23 21" fill="none" xmlns="http://www.w3.org/2000/svg">
<path d="M2 0C0.895 0 0 0.895 0 2V16C0 17.105 0.895 18 2 18H3C3.552 18 4 17.552 4 17V16C4 15.448 4.448 15 5 15C5.552 15 6 15.448 6 16V17C6 17.552 6.448 18 7 18H11.7793C11.2823 17.448 11 16.748 11 16C11 15.199 11.3119 14.4449 11.8789 13.8789L12 13.7578V13C12 11.346 13.346 10 15 10H15.7578L15.8789 9.87891C16.4449 9.31191 17.199 9 18 9C18.801 9 19.5551 9.31191 20.1211 9.87891L20.2422 10H21C21.352 10 21.686 10.0716 22 10.1836V4C22 2.895 21.105 2 20 2H13.2363C12.8573 2 12.5108 1.78527 12.3418 1.44727L12.1699 1.10547C11.8309 0.428469 11.1398 0 10.3828 0H2ZM6 5C7.133 5 8 5.867 8 7C8 8.133 7.133 9 6 9C4.867 9 4 8.133 4 7C4 5.867 4.867 5 6 5ZM14 5H18C18.552 5 19 5.448 19 6C19 6.552 18.552 7 18 7H14C13.448 7 13 6.552 13 6C13 5.448 13.448 5 14 5ZM6 10C8.185 10 10 10.691 10 12V12.5C10 12.776 9.776 13 9.5 13H2.5C2.224 13 2 12.776 2 12.5V12C2 10.691 3.815 10 6 10ZM18 11C17.7442 11 17.4885 11.0975 17.293 11.293L16.5859 12H15C14.447 12 14 12.447 14 13V14.5859L13.293 15.293C12.902 15.684 12.902 16.316 13.293 16.707L14 17.4141V19C14 19.553 14.447 20 15 20H16.5859L17.293 20.707C17.488 20.902 17.744 21 18 21C18.256 21 18.512 20.902 18.707 20.707L19.4141 20H21C21.553 20 22 19.553 22 19V17.4141L22.707 16.707C23.098 16.316 23.098 15.684 22.707 15.293L22 14.5859V13C22 12.447 21.553 12 21 12H19.4141L18.707 11.293C18.5115 11.0975 18.2558 11 18 11Z" fill="black"/>
</svg>
