<svg width="16" height="16" viewBox="0 0 16 16" fill="none" xmlns="http://www.w3.org/2000/svg">
<g clip-path="url(#clip0)">
<path d="M2.66665 2.66666C1.93331 2.66666 1.33331 3.26666 1.33331 3.99999V12C1.33331 12.7333 1.93331 13.3333 2.66665 13.3333H7.52993C7.31126 12.6 7.26047 11.7938 7.4518 10.9544C7.86114 9.15708 9.33766 7.73018 11.1523 7.40884C12.4663 7.17618 13.6993 7.49783 14.6666 8.17317V5.33332C14.6666 4.59999 14.0666 3.99999 13.3333 3.99999H8.55206C8.19873 3.99999 7.85935 3.85936 7.60935 3.60936L7.05727 3.05728C6.80727 2.80728 6.4679 2.66666 6.11456 2.66666H2.66665ZM12.0013 8.66666C10.1946 8.66666 8.66665 10.1946 8.66665 12.0013C8.66665 13.8673 10.1333 15.3333 12 15.3333C12.6666 15.3333 13.3338 15.1328 13.8672 14.7995L14.8737 15.8073C15.1317 16.0653 15.5493 16.0653 15.8073 15.8073C16.0653 15.5493 16.0653 15.1317 15.8073 14.8737L14.7995 13.8672C15.1328 13.3338 15.3333 12.6667 15.3333 12C15.3333 10.1333 13.8673 8.66666 12.0013 8.66666ZM12 9.99999C13.1333 9.99999 14 10.8667 14 12C14 13.1333 13.1333 14 12 14C10.8666 14 9.99998 13.1333 9.99998 12C9.99998 10.8667 10.8666 9.99999 12 9.99999Z" fill="#1D70B8"/>
</g>
<defs>
<clipPath id="clip0">
<rect width="16" height="16" fill="white"/>
</clipPath>
</defs>
</svg>
