<svg width="16" height="16" viewBox="0 0 16 16" fill="none" xmlns="http://www.w3.org/2000/svg">
<path d="M8.00001 1.33334C7.91238 1.33352 7.82564 1.35098 7.74476 1.38472C7.66388 1.41845 7.59045 1.46781 7.52866 1.52995L4.10679 4.75651C4.10415 4.75864 4.10154 4.76081 4.09897 4.76302L4.09767 4.76433C4.03516 4.82683 4.00003 4.9116 4.00001 5C4.00001 5.08841 4.03513 5.17319 4.09765 5.2357C4.16016 5.29822 4.24494 5.33334 4.33335 5.33334H6.66668V10.6667C6.66668 11.0347 6.96535 11.3333 7.33335 11.3333H8.00001H8.66668C9.03468 11.3333 9.33335 11.0347 9.33335 10.6667V5.33334H11.6667C11.7551 5.33334 11.8399 5.29822 11.9024 5.2357C11.9649 5.17319 12 5.08841 12 5C12 4.9116 11.9649 4.82683 11.9024 4.76433L11.8815 4.74479L8.47788 1.53516C8.47066 1.52805 8.46328 1.5211 8.45574 1.51433C8.33234 1.39829 8.1694 1.33358 8.00001 1.33334ZM2.00001 13.3333C1.91167 13.3321 1.82396 13.3484 1.74199 13.3814C1.66001 13.4143 1.58539 13.4632 1.52248 13.5252C1.45957 13.5873 1.40961 13.6612 1.37551 13.7427C1.34141 13.8242 1.32385 13.9117 1.32385 14C1.32385 14.0884 1.34141 14.1758 1.37551 14.2573C1.40961 14.3388 1.45957 14.4127 1.52248 14.4748C1.58539 14.5368 1.66001 14.5857 1.74199 14.6187C1.82396 14.6516 1.91167 14.6679 2.00001 14.6667H14C14.0884 14.6679 14.1761 14.6516 14.258 14.6187C14.34 14.5857 14.4146 14.5368 14.4775 14.4748C14.5405 14.4127 14.5904 14.3388 14.6245 14.2573C14.6586 14.1758 14.6762 14.0884 14.6762 14C14.6762 13.9117 14.6586 13.8242 14.6245 13.7427C14.5904 13.6612 14.5405 13.5873 14.4775 13.5252C14.4146 13.4632 14.34 13.4143 14.258 13.3814C14.1761 13.3484 14.0884 13.3321 14 13.3333H2.00001Z" fill="#1D70B8"/>
</svg>
