<svg width="24" height="24" viewBox="0 0 24 24" fill="none" xmlns="http://www.w3.org/2000/svg">
<path d="M10 2C5.038 2 1 6.038 1 11C1 15.611 4.48789 19.4195 8.96289 19.9355C9.02089 19.7845 9.06739 19.6303 9.15039 19.4883L9.45117 18.9727L14.4082 10.4727C14.8942 9.63966 15.7629 9.11648 16.7129 9.02148C16.8099 9.01148 16.903 8.98438 17.002 8.98438C17.225 8.98438 17.4413 9.02131 17.6543 9.07031C18.1083 9.18031 18.5316 9.3905 18.8926 9.6875C18.2546 5.3465 14.516 2 10 2ZM10 6C10.552 6 11 6.448 11 7V11C11 11.265 10.895 11.519 10.707 11.707L8.41406 14C8.02406 14.39 7.39 14.39 7 14C6.61 13.61 6.61 12.9759 7 12.5859L9 10.5859V7C9 6.448 9.448 6 10 6ZM17 10.9844C16.6645 10.9844 16.3297 11.1495 16.1367 11.4805L10.877 20.4961C10.488 21.1631 10.9682 22 11.7402 22H22.2598C23.0318 22 23.512 21.1631 23.123 20.4961L17.8633 11.4805C17.6703 11.1495 17.3355 10.9844 17 10.9844ZM17 14C17.552 14 18 14.448 18 15V17C18 17.552 17.552 18 17 18C16.448 18 16 17.552 16 17V15C16 14.448 16.448 14 17 14ZM17 19C17.552 19 18 19.448 18 20C18 20.552 17.552 21 17 21C16.448 21 16 20.552 16 20C16 19.448 16.448 19 17 19Z" fill="#1D70B8"/>
</svg>
