<svg width="16" height="16" viewBox="0 0 16 16" fill="none" xmlns="http://www.w3.org/2000/svg">
<path d="M7.33322 1.33334C6.96522 1.33334 6.66656 1.63201 6.66656 2.00001V7.33334H4.33323C4.24482 7.33334 4.16004 7.36846 4.09752 7.43097C4.03501 7.49349 3.99989 7.57827 3.99989 7.66668C3.99991 7.75508 4.03503 7.83985 4.09755 7.90235C4.10421 7.90916 4.11116 7.91568 4.11838 7.92188L7.52203 11.1315L7.54416 11.1524C7.66756 11.2684 7.83051 11.3331 7.99989 11.3333C8.16928 11.3331 8.33222 11.2684 8.45562 11.1524L8.46474 11.1445C8.46693 11.142 8.4691 11.1393 8.47125 11.1367L11.8736 7.9284C11.8803 7.92258 11.8869 7.9165 11.8931 7.91017L11.8983 7.90626C11.8996 7.90497 11.9009 7.90367 11.9022 7.90235C11.9648 7.83985 11.9999 7.75508 11.9999 7.66668C11.9999 7.57827 11.9648 7.49349 11.9023 7.43097C11.8397 7.36846 11.755 7.33334 11.6666 7.33334H9.33322V2.00001C9.33322 1.63201 9.03456 1.33334 8.66656 1.33334H7.99989H7.33322ZM1.99989 13.3333C1.91155 13.3321 1.82384 13.3484 1.74186 13.3814C1.65988 13.4143 1.58527 13.4632 1.52236 13.5252C1.45944 13.5873 1.40949 13.6612 1.37539 13.7427C1.34129 13.8242 1.32373 13.9117 1.32373 14C1.32373 14.0884 1.34129 14.1758 1.37539 14.2573C1.40949 14.3388 1.45944 14.4128 1.52236 14.4748C1.58527 14.5368 1.65988 14.5857 1.74186 14.6187C1.82384 14.6516 1.91155 14.6679 1.99989 14.6667H13.9999C14.0882 14.6679 14.1759 14.6516 14.2579 14.6187C14.3399 14.5857 14.4145 14.5368 14.4774 14.4748C14.5403 14.4128 14.5903 14.3388 14.6244 14.2573C14.6585 14.1758 14.6761 14.0884 14.6761 14C14.6761 13.9117 14.6585 13.8242 14.6244 13.7427C14.5903 13.6612 14.5403 13.5873 14.4774 13.5252C14.4145 13.4632 14.3399 13.4143 14.2579 13.3814C14.1759 13.3484 14.0882 13.3321 13.9999 13.3333H1.99989Z" fill="#1D70B8"/>
</svg>
