<svg width="20" height="21" viewBox="0 0 20 21" fill="none" xmlns="http://www.w3.org/2000/svg">
<path d="M9.99996 0C6.68596 0 3.99996 2.686 3.99996 6C3.99996 8.838 6.63016 12.7417 8.40816 15.0547C9.21416 16.1037 10.7868 16.1037 11.5918 15.0547C13.3698 12.7417 16 8.838 16 6C16 2.686 13.314 0 9.99996 0ZM9.99996 3.85742C11.184 3.85742 12.1425 4.816 12.1425 6C12.1425 7.183 11.183 8.14258 9.99996 8.14258C8.81696 8.14258 7.85738 7.184 7.85738 6C7.85738 4.816 8.81596 3.85742 9.99996 3.85742ZM4.15426 14C3.33626 14 2.60084 14.4988 2.29684 15.2578L1.09762 18.2578C0.572617 19.5718 1.53809 21 2.95309 21H17.0468C18.4618 21 19.4273 19.5718 18.9023 18.2578L17.7031 15.2578C17.3991 14.4988 16.6637 14 15.8457 14H15C14.448 14 14 14.448 14 15C14 15.552 14.448 16 15 16H15.8476L16.7734 18.3145C16.9044 18.6435 16.6626 19 16.3086 19H3.69137C3.33737 19 3.09648 18.6435 3.22848 18.3145L4.1523 16H4.99996C5.55196 16 5.99996 15.552 5.99996 15C5.99996 14.448 5.55196 14 4.99996 14H4.15426Z" fill="black"/>
</svg>
