<svg width="12" height="14" viewBox="0 0 12 14" fill="none" xmlns="http://www.w3.org/2000/svg">
<path d="M2.66667 0.666664C2.29867 0.666664 2 0.965331 2 1.33333V2H1.33333C0.6 2 0 2.6 0 3.33333V12.6667C0 13.4 0.6 14 1.33333 14H10.6667C11.4 14 12 13.4 12 12.6667V3.33333C12 2.6 11.4 2 10.6667 2H10V1.33333C10 0.965331 9.70133 0.666664 9.33333 0.666664C8.96533 0.666664 8.66667 0.965331 8.66667 1.33333V2H3.33333V1.33333C3.33333 0.965331 3.03467 0.666664 2.66667 0.666664ZM1.33333 5.33333H10.6667V12C10.6667 12.368 10.368 12.6667 10 12.6667H2C1.632 12.6667 1.33333 12.368 1.33333 12V5.33333Z" fill="#1D70B8"/>
</svg>
