<svg width="64" height="64" viewBox="0 0 64 64" fill="none" xmlns="http://www.w3.org/2000/svg">
<path d="M17.5 13.3698C6.55884 14.0449 -1.83272 24.143 0.348948 35.651C1.74095 42.9977 7.66628 48.9257 15.0156 50.3177C25.008 52.212 33.9203 46.1301 36.5417 37.3333H48V40C48 42.9467 50.3867 45.3333 53.3333 45.3333C56.28 45.3333 58.6667 42.9467 58.6667 40V37.3333C61.6133 37.3333 64 34.9467 64 32C64 29.0533 61.6133 26.6667 58.6667 26.6667H36.5312C34.6118 20.1153 29.092 14.9654 22.3177 13.6823C20.674 13.3706 19.063 13.2733 17.5 13.3698ZM18.6667 24C23.0853 24 26.6667 27.5813 26.6667 32C26.6667 36.4187 23.0853 40 18.6667 40C14.248 40 10.6667 36.4187 10.6667 32C10.6667 27.5813 14.248 24 18.6667 24Z" fill="#1D70B8"/>
</svg>
