<svg width="12" height="10" viewBox="0 0 12 10" fill="none" xmlns="http://www.w3.org/2000/svg">
<path d="M4.66669 0.561203C4.49611 0.561203 4.32534 0.627484 4.19534 0.757818L0.424504 4.52865C0.163837 4.78932 0.163837 5.21136 0.424504 5.47136L4.19534 9.24219C4.456 9.50286 4.87805 9.50286 5.13805 9.24219L5.19534 9.1849C5.456 8.92423 5.456 8.50219 5.19534 8.24219L2.61982 5.66667H11.3334C11.7014 5.66667 12 5.368 12 5C12 4.632 11.7014 4.33334 11.3334 4.33334H2.61982L5.19534 1.75782C5.456 1.49715 5.456 1.07511 5.19534 0.815109L5.13805 0.757818C5.00771 0.627484 4.83727 0.561203 4.66669 0.561203Z" fill="#1D70B8"/>
</svg>
