<svg width="22" height="21" viewBox="0 0 22 21" fill="none" xmlns="http://www.w3.org/2000/svg">
<path d="M4 0C2.895 0 2 0.895 2 2V12H1C0.448 12 0 12.448 0 13V15C0 16.657 1.343 18 3 18H4.46875C4.82775 18 5.10464 17.6861 5.05664 17.3301C5.01964 17.0591 5 16.782 5 16.5C5 15.188 5.39155 13.9683 6.06055 12.9473C6.32855 12.5393 6.06417 12 5.57617 12H4V2H17V8.07812C17 8.56812 17.3587 8.99178 17.8457 9.05078C17.8527 9.05178 17.8582 9.05369 17.8652 9.05469C18.4652 9.13069 19 8.68508 19 8.08008V2C19 0.895 18.105 0 17 0H4ZM6.5 4C6.224 4 6 4.224 6 4.5V5.5C6 5.776 6.224 6 6.5 6H7.5C7.776 6 8 5.776 8 5.5V4.5C8 4.224 7.776 4 7.5 4H6.5ZM10.5 4C10.224 4 10 4.224 10 4.5V5.5C10 5.776 10.224 6 10.5 6H14.5C14.776 6 15 5.776 15 5.5V4.5C15 4.224 14.776 4 14.5 4H10.5ZM6.5 8C6.224 8 6 8.224 6 8.5V9.5C6 9.776 6.224 10 6.5 10H7.5C7.776 10 8 9.776 8 9.5V8.5C8 8.224 7.776 8 7.5 8H6.5ZM10.5 8C10.224 8 10 8.224 10 8.5V9.5C10 9.776 10.224 10 10.5 10H11.4121C12.3701 9.114 13.556 8.47364 14.877 8.18164C14.785 8.07364 14.653 8 14.5 8H10.5ZM16.498 10.0039C15.092 10.0043 13.6843 10.5399 12.6133 11.6094C12.4753 11.7474 12.369 11.9037 12.248 12.0527C12.212 12.0457 12.1776 12.0402 12.1406 12.0332C10.7246 11.8302 9.33231 12.2927 8.32031 13.3047C7.46831 14.1577 7 15.2883 7 16.4863C7 17.6843 7.46926 18.814 8.32227 19.666C9.19427 20.538 10.347 20.9746 11.502 20.9746C12.331 20.9746 13.1588 20.745 13.8848 20.293C14.6988 20.735 15.5931 20.9805 16.4961 20.9805C17.9021 20.9805 19.3089 20.445 20.3789 19.375C22.5199 17.232 22.5199 13.7494 20.3789 11.6074C19.3089 10.5384 17.904 10.0035 16.498 10.0039ZM16.4961 12.0039C17.3902 12.0035 18.2848 12.3434 18.9648 13.0234C20.3258 14.3834 20.3258 16.598 18.9648 17.959C17.6038 19.32 15.3873 19.32 14.0273 17.959C13.3653 17.297 13 16.4202 13 15.4922C13 14.5642 13.3643 13.6874 14.0273 13.0254C14.7078 12.3449 15.602 12.0043 16.4961 12.0039Z" fill="#1D70B8"/>
</svg>
