<svg width="16" height="20" viewBox="0 0 16 20" fill="none" xmlns="http://www.w3.org/2000/svg">
<path d="M15.414 5.414L10.586 0.586C10.211 0.211 9.702 0 9.172 0H2C0.9 0 0 0.9 0 2V18C0 19.1 0.9 20 2 20H14C15.1 20 16 19.1 16 18V6.828C16 6.298 15.789 5.789 15.414 5.414ZM11.484 13H11V16.5C11 16.776 10.776 17 10.5 17H9V15.5C9 15.224 8.776 15 8.5 15H7.5C7.224 15 7 15.224 7 15.5V17H5.5C5.224 17 5 16.776 5 16.5V13H4.516C4.516 13 4 12.992 4 12.667C4 12.4 4.436 12.159 4.436 12.159L7.4 10.45C7.756 10.183 8.244 10.183 8.6 10.45L11.564 12.159C11.564 12.159 12 12.4 12 12.667C12 12.992 11.484 13 11.484 13ZM9 7V1.5L14.5 7H9Z" fill="black"/>
</svg>
