<svg width="12" height="12" viewBox="0 0 12 12" fill="none" xmlns="http://www.w3.org/2000/svg">
<path d="M10.6667 0H1.33333C0.598 0 0 0.598 0 1.33333V10.6667C0 11.402 0.598 12 1.33333 12H10.6667C11.402 12 12 11.402 12 10.6667V1.33333C12 0.598 11.402 0 10.6667 0ZM5.52867 7.80467L2.862 5.138C2.602 4.878 2.602 4.45533 2.862 4.19533C3.122 3.93533 3.54467 3.93533 3.80467 4.19533L6 6.39067L8.19533 4.19533C8.45533 3.93533 8.878 3.93533 9.138 4.19533C9.398 4.45533 9.398 4.878 9.138 5.138L6.47133 7.80467C6.21133 8.06533 5.78867 8.06533 5.52867 7.80467Z" fill="#1D70B8"/>
</svg>
