<svg width="16" height="16" viewBox="0 0 16 16" fill="none" xmlns="http://www.w3.org/2000/svg">
<path d="M8.36332 8.10067C8.36332 8.80333 8.93332 9.37333 9.63598 9.37333H11.9933C11.5886 10.688 10.5926 11.6847 9.15332 11.9507C6.86598 12.374 4.57865 10.7073 4.35998 8.39133C4.13332 5.99467 6.01265 3.978 8.36332 3.978C9.03132 3.978 9.66065 4.142 10.2147 4.43067C10.7193 4.694 11.3366 4.588 11.7387 4.18533C12.3747 3.54933 12.206 2.47667 11.4067 2.066C10.288 1.49133 8.98598 1.22333 7.61198 1.374C4.55665 1.70867 2.07198 4.19133 1.73732 7.24667C1.29665 11.2667 4.43265 14.6667 8.36332 14.6667C12.6087 14.6667 14.3447 11.6567 14.696 9.068C14.8573 7.88133 13.908 6.83333 12.7106 6.832L9.63732 6.828C8.93398 6.82667 8.36332 7.39667 8.36332 8.10067Z" fill="#1D70B8"/>
</svg>
