<svg width="15" height="12" viewBox="0 0 15 12" fill="none" xmlns="http://www.w3.org/2000/svg">
<path d="M9.33337 0.666664C9.24497 0.666664 9.16018 0.701783 9.09767 0.764295C9.03516 0.826807 9.00004 0.911592 9.00004 0.999997V4H1.66671C0.930041 4 0.333374 4.59666 0.333374 5.33333V6V6.66666C0.333374 7.40333 0.930041 8 1.66671 8H9.00004V11C9.00004 11.0884 9.03516 11.1732 9.09767 11.2357C9.16018 11.2982 9.24497 11.3333 9.33337 11.3333C9.42177 11.3333 9.50655 11.2982 9.56905 11.2357C9.57586 11.229 9.58237 11.2221 9.58858 11.2148L14.1289 6.48047L14.1316 6.47786C14.1387 6.47064 14.1456 6.46326 14.1524 6.45573C14.2684 6.33233 14.3331 6.16938 14.3334 6C14.3331 5.83061 14.2684 5.66767 14.1524 5.54427L14.1446 5.53515C14.1411 5.53208 14.1377 5.52904 14.1342 5.52604L9.57296 0.768227C9.57252 0.767794 9.57209 0.76736 9.57166 0.766925C9.54062 0.735188 9.50355 0.709971 9.46263 0.692754C9.42171 0.675537 9.37777 0.666667 9.33337 0.666664Z" fill="#0B0C0C" fill-opacity="0.2"/>
</svg>
