<svg width="18" height="14" viewBox="0 0 18 14" fill="none" xmlns="http://www.w3.org/2000/svg">
<path d="M6.99998 0.341797C6.7441 0.341797 6.48795 0.441219 6.29294 0.636719L0.636695 6.29297C0.245695 6.68397 0.245695 7.31703 0.636695 7.70703L6.29294 13.3633C6.68394 13.7543 7.31701 13.7543 7.70701 13.3633L7.79294 13.2773C8.18394 12.8863 8.18394 12.2533 7.79294 11.8633L3.92966 8H17C17.552 8 18 7.552 18 7C18 6.448 17.552 6 17 6H3.92966L7.79294 2.13672C8.18394 1.74572 8.18394 1.11266 7.79294 0.722656L7.70701 0.636719C7.51151 0.441219 7.25585 0.341797 6.99998 0.341797Z" fill="#FEFEFE"/>
</svg>
