<svg width="13" height="12" viewBox="0 0 13 12" fill="none" xmlns="http://www.w3.org/2000/svg">
<path d="M0.895833 0C0.677167 0 0.5 0.177167 0.5 0.395833V3.04688C0.5 3.40021 0.927083 3.57682 1.17708 3.32682L2.03125 2.47396L4.69531 5.13802C4.75674 5.202 4.83032 5.25309 4.91174 5.28827C4.99316 5.32346 5.08078 5.34206 5.16948 5.34296C5.25817 5.34386 5.34615 5.32706 5.42827 5.29353C5.51039 5.26 5.58499 5.21043 5.64771 5.14771C5.71043 5.08499 5.76 5.01039 5.79353 4.92827C5.82706 4.84615 5.84386 4.75817 5.84296 4.66948C5.84206 4.58078 5.82346 4.49316 5.78827 4.41174C5.75309 4.33032 5.702 4.25674 5.63802 4.19531L2.97396 1.53125L3.82682 0.677083C4.07682 0.427083 3.90021 0 3.54688 0H0.895833ZM9.45312 0C9.09979 0 8.92318 0.427083 9.17318 0.677083L10.026 1.53125L7.36198 4.19531C7.298 4.25674 7.24691 4.33032 7.21172 4.41174C7.17653 4.49316 7.15794 4.58078 7.15704 4.66948C7.15614 4.75817 7.17294 4.84615 7.20647 4.92827C7.23999 5.01039 7.28957 5.08499 7.35229 5.14771C7.41501 5.21043 7.48961 5.26001 7.57173 5.29353C7.65385 5.32706 7.74183 5.34386 7.83052 5.34296C7.91922 5.34206 8.00684 5.32347 8.08826 5.28828C8.16968 5.25309 8.24326 5.202 8.30469 5.13802L10.9688 2.47396L11.8229 3.32682C12.0729 3.57682 12.5 3.40021 12.5 3.04688V0.395833C12.5 0.177167 12.3222 0 12.1029 0H9.45312ZM5.15365 6.66016C4.98045 6.66532 4.81606 6.7377 4.69531 6.86198L2.03125 9.52604L1.17708 8.67318C0.927083 8.42318 0.5 8.59979 0.5 8.95312V11.6029C0.5 11.8222 0.677167 12 0.895833 12H3.54688C3.90021 12 4.07682 11.5729 3.82682 11.3229L2.97396 10.4688L5.63802 7.80469C5.73436 7.71105 5.80015 7.59049 5.82679 7.45881C5.85343 7.32713 5.83967 7.19047 5.78731 7.06675C5.73495 6.94302 5.64643 6.838 5.53336 6.76545C5.42029 6.6929 5.28794 6.6562 5.15365 6.66016ZM7.82682 6.66016C7.6942 6.66019 7.5646 6.69978 7.4546 6.77385C7.34459 6.84793 7.25917 6.95313 7.20927 7.076C7.15936 7.19888 7.14724 7.33384 7.17444 7.46365C7.20164 7.59345 7.26694 7.71219 7.36198 7.80469L10.026 10.4688L9.17318 11.3229C8.92318 11.5729 9.09979 12 9.45312 12H12.1029C12.3222 12 12.5 11.8228 12.5 11.6042V8.95312C12.5 8.59979 12.0729 8.42318 11.8229 8.67318L10.9688 9.52604L8.30469 6.86198C8.24256 6.79812 8.16826 6.74735 8.08619 6.71269C8.00411 6.67802 7.91592 6.66016 7.82682 6.66016Z" fill="#1D70B8"/>
</svg>
